Coordinates
version=1
nRows=14
nColumns=40
inDegrees=yes

Units are S.I. units (second, meters, Newtons, ...)
Angles are in degrees.

endheader
time	pelvis_tilt	pelvis_list	pelvis_rotation	pelvis_tx	pelvis_ty	pelvis_tz	hip_flexion_r	hip_adduction_r	hip_rotation_r	knee_angle_r	knee_angle_r_beta	ankle_angle_r	subtalar_angle_r	mtp_angle_r	hip_flexion_l	hip_adduction_l	hip_rotation_l	knee_angle_l	knee_angle_l_beta	ankle_angle_l	subtalar_angle_l	mtp_angle_l	lumbar_extension	lumbar_bending	lumbar_rotation	arm_flex_r	arm_add_r	arm_rot_r	elbow_flex_r	pro_sup_r	wrist_flex_r	wrist_dev_r	arm_flex_l	arm_add_l	arm_rot_l	elbow_flex_l	pro_sup_l	wrist_flex_l	wrist_dev_l
     19.55500000	     -7.40528796	     -5.62926463	     -1.46096100	      0.97713781	      0.93031091	      0.40062164	     28.46887328	     -0.86285233	    -10.71859391	     27.30759936	     27.30759936	      4.85193683	     -3.82253556	      1.16772637	      7.89894406	     -6.15049845	    -11.10846595	     14.63690779	     14.63690779	     14.57529775	    -10.42974998	     -1.35205480	    -10.08250265	      5.69390981	      5.06666181	     -7.33479879	    -16.37280890	    -14.07505987	     32.94508544	     46.40266545	      0.00000000	      0.00000000	     14.67591962	    -36.91718123	    -33.96530706	     76.74381488	     48.13589540	      0.00000000	      0.00000000
     19.56807143	     -7.31665100	     -5.54221749	     -1.38713116	      0.97759013	      0.92938323	      0.40178463	     27.31468599	     -0.59513687	    -11.28473817	     24.20399602	     24.20399602	      4.97246291	     -2.11898539	      1.46681596	      7.38189140	     -6.13627594	    -11.16356595	     14.60485028	     14.60485028	     14.91464735	    -10.23286091	     -1.60944630	     -9.97275765	      5.69647577	      5.03290730	     -6.87939346	    -16.32402038	    -14.33753436	     33.18664360	     46.40883811	      0.00000000	      0.00000000	     15.08626826	    -37.28376964	    -34.06660506	     77.17919792	     48.16314465	      0.00000000	      0.00000000
     19.58114286	     -7.22646506	     -5.44973615	     -1.27845063	      0.97826979	      0.92834241	      0.40303767	     26.22207411	     -0.33254499	    -11.74608636	     21.55970373	     21.55970373	      5.09564420	     -0.77659692	      1.85428496	      6.87831872	     -6.12083831	    -11.15211654	     14.62108331	     14.62108331	     15.28693261	    -10.09918142	     -1.80254825	     -9.79962558	      5.69253072	      4.98873730	     -6.35868565	    -16.21730671	    -14.51086796	     33.45296743	     46.40917314	      0.00000000	      0.00000000	     15.51209160	    -37.59151198	    -34.07593613	     77.53924663	     48.18139210	      0.00000000	      0.00000000
     19.59421429	     -7.09615390	     -5.32361252	     -1.16097311	      0.97920937	      0.92729328	      0.40435555	     25.22138228	     -0.13894291	    -12.13263578	     19.52255519	     19.52255519	      5.24835393	      0.23913970	      2.16324667	      6.34226847	     -6.07680269	    -11.13334615	     14.69149879	     14.69149879	     15.70193916	    -10.00653527	     -1.93553397	     -9.64099614	      5.64126008	      4.95720590	     -5.79150663	    -16.14289238	    -14.63709192	     33.74130261	     46.40637148	      0.00000000	      0.00000000	     15.89566020	    -37.78068797	    -34.02124591	     77.83543938	     48.19276660	      0.00000000	      0.00000000
     19.60728571	     -6.86898028	     -5.25689071	     -1.00208565	      0.98043556	      0.92643499	      0.40573925	     24.19884650	      0.06028441	    -12.51819232	     18.00969051	     18.00969051	      5.38499131	      1.04256630	      2.30573997	      5.70654143	     -6.11082972	    -11.05746991	     14.80369179	     14.80369179	     16.14573750	     -9.86493588	     -1.94267938	     -9.53981497	      5.71332682	      4.98420744	     -5.20813546	    -16.13829824	    -14.77160045	     34.05956080	     46.40236680	      0.00000000	      0.00000000	     16.16506828	    -37.78581326	    -33.90289644	     78.08837703	     48.19937113	      0.00000000	      0.00000000
     19.62035714	     -6.61533629	     -5.15979909	     -0.83876468	      0.98186230	      0.92566113	      0.40719291	     23.28713340	      0.16887123	    -12.84997191	     17.05105755	     17.05105755	      5.27425195	      1.52323407	      1.26361105	      5.13328327	     -6.16832773	    -11.14881333	     15.16866725	     15.16866725	     17.14152514	     -9.28933247	     -0.85180531	     -9.45115595	      5.74256752	      5.09437840	     -4.73842910	    -16.05962212	    -15.34706312	     34.77004952	     46.38812017	      0.00000000	      0.00000000	     16.42903194	    -37.60670115	    -33.62579263	     78.42226823	     48.23584157	      0.00000000	      0.00000000
     19.63342857	     -6.38308437	     -5.12049329	     -0.66818883	      0.98329068	      0.92497714	      0.40877803	     22.60953075	      0.31599025	    -12.89433927	     16.75374183	     16.75374183	      5.49908371	      1.38548911	      1.10955293	      4.59662642	     -6.25938186	    -10.92411353	     15.48404667	     15.48404667	     17.50765543	     -9.41963108	     -0.85856959	     -9.32203365	      5.83268226	      5.13057153	     -3.98202388	    -16.04025889	    -15.32541488	     35.09079842	     46.37664973	      0.00000000	      0.00000000	     16.60850190	    -37.36722975	    -33.46243053	     78.50385914	     48.23236738	      0.00000000	      0.00000000
     19.64650000	     -6.25260110	     -5.05408370	     -0.51255558	      0.98490736	      0.92436537	      0.41046691	     22.10755350	      0.38687610	    -12.93570298	     16.81024507	     16.81024507	      5.87213612	      1.21215604	      0.92309078	      4.13144191	     -6.33129881	    -10.76778557	     15.73503895	     15.73503895	     17.79203137	     -9.51854802	     -0.91816168	     -9.02834547	      5.86779619	      5.22227073	     -3.33145121	    -16.04244313	    -15.29759464	     35.35690865	     46.36833159	      0.00000000	      0.00000000	     16.59419523	    -36.98251660	    -33.29456485	     78.52473534	     48.22194902	      0.00000000	      0.00000000
     19.65957143	     -5.79510786	     -5.16015053	     -0.27487943	      0.98641553	      0.92438905	      0.41223895	     21.32976537	      0.63203768	    -12.83374751	     17.09952429	     17.09952429	      5.88618574	      0.42965504	      0.21720070	      3.67195650	     -6.68067318	    -10.51296753	     16.65452451	     16.65452451	     18.23942355	     -9.76507057	     -0.52088255	     -9.20641057	      6.15614381	      5.28260552	     -2.41397283	    -16.07816065	    -15.17308569	     35.91837191	     46.34022463	      0.00000000	      0.00000000	     16.62609329	    -36.42708226	    -33.06387026	     78.71889470	     48.21795129	      0.00000000	      0.00000000
     19.67264286	     -5.46048060	     -5.15002613	     -0.07285386	      0.98806079	      0.92455965	      0.41405248	     20.70462079	      0.70338779	    -12.77002622	     17.54910663	     17.54910663	      6.15085158	      0.07703826	     -0.11992676	      3.20799899	     -6.89091637	    -10.29926216	     17.29580573	     17.29580573	     18.38440515	     -9.90206791	     -0.45875812	     -9.16625480	      6.30431115	      5.35098038	     -1.49788008	    -16.06267451	    -15.09345473	     36.34163756	     46.32379460	      0.00000000	      0.00000000	     16.44758639	    -35.65550844	    -32.76565302	     78.71200161	     48.19753506	      0.00000000	      0.00000000
     19.68571429	     -5.19107373	     -5.24838256	      0.16194966	      0.98948833	      0.92461196	      0.41621477	     20.13589980	      1.03409987	    -12.23523617	     17.86834796	     17.86834796	      5.49563763	     -1.76439634	     -2.76416899	      3.38228696	     -7.41996208	    -10.26231431	     19.09204463	     19.09204463	     19.77175669	     -9.40433640	      1.85041567	     -9.15154821	      6.48653974	      5.25794905	     -0.99355116	    -16.28564392	    -13.82544257	     38.18887019	     46.15677431	      0.00000000	      0.00000000	     15.77609047	    -35.11867050	    -32.91168381	     79.36926972	     48.26149705	      0.00000000	      0.00000000
     19.69878571	     -4.89421042	     -5.27617034	      0.41882975	      0.99088195	      0.92498485	      0.41822819	     19.60978202	      1.12059194	    -12.28261594	     18.45712520	     18.45712520	      5.86230376	     -2.14157716	     -2.97278738	      3.45141863	     -7.79717293	     -9.93755739	     20.57488249	     20.57488249	     19.76856709	     -9.81969369	      1.68106981	     -9.12947599	      6.62686062	      5.32172800	     -0.01190505	    -16.31846973	    -13.58092067	     38.67246853	     46.12765557	      0.00000000	      0.00000000	     15.46957641	    -34.28019047	    -32.58271154	     79.29481311	     48.24246609	      0.00000000	      0.00000000
     19.71185714	     -4.64765068	     -5.32746420	      0.68559992	      0.99215381	      0.92546578	      0.42036963	     19.08617048	      1.27477180	    -12.22383216	     18.90729265	     18.90729265	      6.19966991	     -2.63669274	     -2.96705415	      3.77607559	     -8.27351788	     -9.65112146	     22.39034196	     22.39034196	     19.65315696	    -10.15882731	      1.39571742	     -9.05579655	      6.79587133	      5.30002629	      0.99173638	    -16.34930999	    -13.17932715	     39.47170977	     46.07684369	      0.00000000	      0.00000000	     14.91481915	    -33.40681077	    -32.22991654	     79.28931427	     48.22448622	      0.00000000	      0.00000000
     19.72492857	     -4.16801226	     -5.13080637	      0.89906936	      0.99362297	      0.92662218	      0.42247263	     18.17594784	      1.18989646	    -12.19495112	     19.12664230	     19.12664230	      6.55214703	     -2.78108682	     -3.02167918	      3.70506189	     -8.44138721	     -9.39789315	     23.95542662	     23.95542662	     19.32584044	    -10.46898721	      1.18429427	     -9.24458447	      6.62601606	      5.41333498	      2.07197547	    -16.30891298	    -13.05825494	     39.98875551	     46.05653516	      0.00000000	      0.00000000	     14.44081551	    -32.28818676	    -31.79373950	     79.12876303	     48.18909262	      0.00000000	      0.00000000
